<?xml version="1.0" encoding="UTF-8"?>
<svg id="Layer_3" data-name="Layer 3" xmlns="http://www.w3.org/2000/svg" viewBox="0 0 247.79 227.56">
  <defs>
    <style>
      .cls-1 {
        stroke-width: 3.37px;
      }

      .cls-1, .cls-2 {
        fill: none;
        stroke: #6b341c;
        stroke-linecap: round;
        stroke-linejoin: round;
      }

      .cls-2 {
        stroke-width: 7px;
      }

      .cls-3 {
        fill: #6b341c;
      }
    </style>
  </defs>
  <g>
    <path class="cls-3" d="M179.44,88.61c-1.7-7.58-9.78-13.12-17.46-11.99,1.2-8.59-7.58-11.37-14.43-12.29-12.61-1.7-25.39-2.1-38.09-1.2-6.36.45-12.7,1.25-18.98,2.37-5.51.99-12.58,1.63-17.44,4.55-3.89,2.34-3.7,7.53-3.6,11.45.3,12.46,2.37,25.05,9.21,35.69,8.44,13.12,23.39,22.21,38.98,22.21,15.59-.02,31.1-9.87,36.45-24.51,6.75-1.09,13.5-3.38,18.62-7.93,5.1-4.56,8.25-11.68,6.73-18.35ZM154.64,73.62c-.39.35-.89.56-1.4.71-2.83.93-5.94,1.2-8.87,1.63-3.2.45-6.4.84-9.61,1.13-6.41.59-12.86.84-19.33.76-.39,0-.77,0-1.16-.02-5.4-.1-10.83-.44-16.21-1.01-3.27-.35-6.5-.89-9.75-1.36-3.15-.44-6.57-.42-9.55-1.57-.32-.12-.66-.29-.76-.61-.76-2.55,15.3-4.31,17.03-4.51,5.57-.66,11.15-.54,16.76-.52,13.05.05,26.05.86,39.03,2.1,1.23.12,2.54.15,3.59.88.35.24.66.56.76.96.12.52-.13,1.06-.52,1.43ZM165.32,100.81c-1.57.79-3.27,1.28-4.95,1.75.54-4.34,1.08-8.69,1.6-13.03.29-2.24,1.65-2.32,3.59-1.68,1.36.44,2.46,1.31,3.22,2.41,2.71,3.92.4,8.6-3.45,10.56Z"/>
    <path class="cls-3" d="M119.15,18.68c-.6,3.19-2.04,6.14-2.98,9.24-.94,3.1-1.34,6.59.11,9.49,1.38,2.75,4.19,4.53,5.74,7.19,1.47,2.53,1.64,5.77.43,8.43s-3.75,4.68-6.62,5.24c1.03-2.66.28-5.73-1.16-8.2s-3.49-4.51-5.3-6.72-3.44-4.73-3.74-7.57c-.55-5.1,3.71-8.13,6.53-11.83,1.4-1.83,2.61-3.91,3-6.21.38-2.23.05-4.56-.25-6.78-.03-.21-.04-.48.15-.6.17-.11.39-.01.57.09,1.43.83,2.6,2.1,3.33,3.58.66,1.33.47,3.19.2,4.64Z"/>
    <path class="cls-3" d="M131.48,25.07c-3.33,2-5.16,6.22-4.36,10.02.57,2.66,2.24,4.93,3.37,7.41,2.07,4.56,2.23,9.96.41,14.63,2.5-.64,4.71-2.36,5.95-4.62s1.5-5.05.69-7.5c-.94-2.86-3.16-5.07-4.92-7.52-3.13-4.34-2.18-7.63-1.14-12.42Z"/>
    <path class="cls-3" d="M104.94,52.47c-.54-2.48-2.4-4.41-4.06-6.32s-3.25-4.22-3.04-6.74c.17-2.09,1.53-3.85,2.68-5.6s2.16-3.87,1.54-5.87c-3.01,2.92-5.64,6.21-7.83,9.78-1.65,2.69-3.06,6.12-1.55,8.9,1.19,2.2,3.78,3.16,5.67,4.8,1.04.91,1.87,2.05,2.43,3.31.42.94.43,3.07,1.4,3.22,2.24.35,3.07-4.1,2.77-5.48Z"/>
  </g>
  <g>
    <path class="cls-3" d="M8.31,214.56c-1.01,0-1.39-.2-1.31-.71.15-1.06,1.46-.78,1.92-2.4.1-.33.18-.63.23-.93l1.49-10.83c.13-.76-.15-1.11-.96-1.11-1.67,0-2.27.88-3.41,2.6-.4.63-.71.93-1.09.93-.53,0-.58-.43-.48-1.11.25-1.39.53-2.35.83-3.06.28-.76.71-1.06,2.25-1.06h10.08c1.54,0,1.87.3,1.97,1.04s.1,1.69-.05,3.08c-.08.66-.25,1.11-.78,1.11-.38,0-.58-.3-.83-.93-.63-1.74-.98-2.63-2.65-2.63-.78,0-1.19.38-1.29,1.14l-1.52,10.83c-.05.3-.08.61-.08.93.03,1.72,1.34,1.26,1.21,2.4-.08.5-.45.71-1.52.71h-4.02Z"/>
    <path class="cls-3" d="M34.7,212.19c-.05,1.06-1.26,2.6-3.23,2.6-1.46,0-2.27-1.01-2.07-3.06l.33-4.6c.15-1.74-.02-2.8-1.21-2.8-1.36,0-3.38,2.15-4.24,7.22l-.33,2.12c-.08.38-.35.61-.71.68l-2.05.48c-.45.1-.73-.28-.66-.73l2.07-13.89c.23-1.44-1.16-1.01-1.16-1.82,0-.38.3-.68,1.74-1.29,1.01-.4,1.94-.58,2.5-.58.45,0,.73.23.63.78l-1.16,7.88c1.16-1.89,2.7-2.98,4.6-2.98,2.6,0,3.51,1.87,3.31,4.75l-.3,4.32c-.05.81.02,1.14.4,1.14.48,0,.78-.71,1.16-.71.15,0,.38.13.38.48Z"/>
    <path class="cls-3" d="M47.28,211.58c-.68,1.41-2.83,3.23-5.86,3.23s-5.25-1.82-5.25-5.15c0-3.61,3.08-7.47,7.8-7.47,2.05,0,3.81.98,3.81,2.9,0,3.38-4.39,4.82-7.93,5.3.45,1.24,1.57,2.05,2.98,2.05,1.57,0,2.75-.71,3.74-1.49.58-.48,1.06-.1.71.63ZM39.47,208.28c0,.43.18.63.68.58,1.87-.3,4.75-1.21,4.75-3.33,0-1.01-.71-1.82-1.87-1.82-2.12,0-3.56,2.22-3.56,4.57Z"/>
    <path class="cls-3" d="M55.64,214.56c-1.01,0-1.39-.18-1.31-.71.15-1.06,1.44-.78,1.92-2.4.1-.3.15-.61.23-1.19l1.29-9.09c.08-.58.1-.88.1-1.19-.03-1.64-1.41-1.34-1.26-2.4.08-.53.5-.71,1.52-.71h5.15c3.79,0,6.31,1.04,5.93,3.84-.18,1.52-1.19,2.73-2.98,3.26,2.78.56,4.19,2.4,3.86,4.82-.5,3.51-3.61,5.76-8.54,5.76h-5.91ZM66.09,209.46c.35-2.47-1.11-4.44-4.24-4.44-.91,0-1.09.23-1.16.83l-.78,5.35c-.18,1.24.05,1.77,1.79,1.77,2.63,0,4.04-1.09,4.39-3.51ZM65.61,201.2c.23-1.51-.86-2.73-2.83-2.73-.66,0-1.11.15-1.19.81l-.5,3.51c-.1.61.68.55,1.24.55,2.05,0,3.08-.71,3.28-2.15Z"/>
    <path class="cls-3" d="M72.08,209.54c0-4.02,3.48-7.35,7.55-7.35,3.46,0,5.5,2.27,5.5,5.15,0,4.32-3.26,7.48-7.42,7.48-3.43,0-5.63-2.1-5.63-5.28ZM81.4,207.21c0-1.87-.56-3.49-2.17-3.49-2.32,0-3.56,3.26-3.59,5.88.03,2.07.71,3.64,2.35,3.64,2.17,0,3.41-3.38,3.41-6.04Z"/>
    <path class="cls-3" d="M86.78,209.54c0-4.02,3.48-7.35,7.55-7.35,3.46,0,5.5,2.27,5.5,5.15,0,4.32-3.26,7.48-7.42,7.48-3.43,0-5.63-2.1-5.63-5.28ZM96.1,207.21c0-1.87-.56-3.49-2.17-3.49-2.32,0-3.56,3.26-3.59,5.88.03,2.07.71,3.64,2.35,3.64,2.17,0,3.41-3.38,3.41-6.04Z"/>
    <path class="cls-3" d="M114.05,212.44c0,.93-1.14,2.37-3,2.37-2.37,0-3.51-2.45-4.14-5.13-.38.08-.76.13-1.11.18l-.53,3.79c-.05.4-.35.61-.68.68l-2.07.48c-.45.1-.73-.25-.66-.73l1.94-13.86c.23-1.44-1.16-1.01-1.16-1.82,0-.38.3-.68,1.74-1.29,1.01-.4,1.94-.58,2.5-.58.45,0,.71.23.63.78l-.96,7.02c1.16-1.36,2.7-2.15,4.34-2.15,1.52,0,2.9.88,2.9,2.5,0,2.05-1.89,3.46-4.29,4.32.71,1.67,1.87,3.56,3.03,3.56.56,0,.81-.63,1.16-.63.28,0,.35.25.35.5ZM105.97,208.45c2.25-.13,4.72-1.19,4.75-2.8.02-.76-.51-1.41-1.49-1.41-1.46,0-2.8,1.79-3.18,3.76l-.08.45Z"/>
    <path class="cls-3" d="M121,214.56c-.86,0-1.19-.15-1.11-.66.13-.86,1.49-.76,1.72-2.5l1.46-10.4c.35-2.98-1.36-2.2-1.19-3.41.1-.53.5-.71,1.52-.71h2.02c.53,0,.83.23,1.14.61l8.61,10.43,1.09-7.88c.23-1.74-1.14-1.62-1.01-2.5.08-.53.45-.66,1.26-.66h2.22c.86,0,1.19.15,1.11.66-.13.83-1.49.76-1.74,2.5l-1.92,13.69c-.08.61-.3.83-.71.83h-.5c-.43,0-.68-.15-.61-.78.1-.61-.08-1.06-.58-1.64l-8.96-10.76-1.36,10.03c-.23,1.74,1.16,1.62,1.04,2.5-.08.53-.45.66-1.26.66h-2.22Z"/>
    <path class="cls-3" d="M140.27,209.54c0-4.02,3.49-7.35,7.55-7.35,3.46,0,5.51,2.27,5.51,5.15,0,4.32-3.26,7.48-7.42,7.48-3.44,0-5.63-2.1-5.63-5.28ZM149.59,207.21c0-1.87-.55-3.49-2.17-3.49-2.32,0-3.56,3.26-3.59,5.88.03,2.07.71,3.64,2.35,3.64,2.17,0,3.41-3.38,3.41-6.04Z"/>
    <path class="cls-3" d="M154.97,209.54c0-4.02,3.49-7.35,7.55-7.35,3.46,0,5.51,2.27,5.51,5.15,0,4.32-3.26,7.48-7.42,7.48-3.44,0-5.63-2.1-5.63-5.28ZM164.28,207.21c0-1.87-.55-3.49-2.17-3.49-2.32,0-3.56,3.26-3.59,5.88.03,2.07.71,3.64,2.35,3.64,2.17,0,3.41-3.38,3.41-6.04Z"/>
    <path class="cls-3" d="M182.24,212.44c0,.93-1.14,2.37-3.01,2.37-2.37,0-3.51-2.45-4.14-5.13-.38.08-.76.13-1.11.18l-.53,3.79c-.05.4-.35.61-.68.68l-2.07.48c-.45.1-.73-.25-.66-.73l1.95-13.86c.23-1.44-1.16-1.01-1.16-1.82,0-.38.3-.68,1.74-1.29,1.01-.4,1.95-.58,2.5-.58.46,0,.71.23.63.78l-.96,7.02c1.16-1.36,2.7-2.15,4.34-2.15,1.52,0,2.9.88,2.9,2.5,0,2.05-1.89,3.46-4.29,4.32.71,1.67,1.87,3.56,3.03,3.56.56,0,.81-.63,1.16-.63.28,0,.35.25.35.5ZM174.16,208.45c2.25-.13,4.72-1.19,4.75-2.8.03-.76-.5-1.41-1.49-1.41-1.46,0-2.8,1.79-3.18,3.76l-.07.45Z"/>
    <path class="cls-3" d="M189.62,205.55c.73-5.23,5.35-8.91,10.71-8.91,1.64,0,2.55.43,3.16.43s.81-.4,1.31-.4c.45,0,.78.25.86,1.34.08.88.15,1.97.15,3.51,0,.68-.15,1.11-.71,1.14-.53,0-.76-.35-1.19-1.11-.93-1.62-1.87-3.21-4.37-3.21-3.23,0-5.55,2.7-6.04,6.16-.61,4.37,1.26,8.11,5.2,8.11,2.04,0,3.61-.93,5.18-2.37.71-.66,1.29.05.73.86-1.19,1.92-4.04,3.74-7.32,3.74-5.15,0-8.41-3.92-7.68-9.27Z"/>
    <path class="cls-3" d="M220.83,212.19c-.05,1.06-1.26,2.6-3.18,2.6-1.24,0-2.22-.53-2.3-2.32-1.06,1.46-2.68,2.35-4.34,2.35-2.37,0-4.19-1.74-4.19-4.57,0-4.42,3.18-8.03,6.84-8.03,1.39,0,2.22.5,2.83.5.71,0,1.59-.53,2.2-.53s.81.43.76,1.01l-.61,8.08c-.05.81.08,1.14.48,1.14.46,0,.76-.71,1.14-.71.15,0,.38.13.38.48ZM215.83,207.11l.05-.81c.1-1.72-.96-2.63-2.17-2.63-2.12,0-3.28,3.31-3.31,5.76-.03,2.25.86,3.18,1.99,3.18,1.82,0,3.26-2.78,3.44-5.51Z"/>
    <path class="cls-3" d="M233.01,199.34c-.13.98-.76,1.51-1.54,1.51-.66,0-1.01-.4-1.06-.91-.1-1.09-.43-1.57-1.16-1.57s-1.54.58-1.67,2.17c-.1.86-.1,2.4.76,2.2l2.12-.46c.91-.2,1.04.13.71,1.01-.38,1.04-.83,1.06-1.46,1.19l-1.64.28-1.62,11.26c-.08.43-.33.53-.71.63l-2.35.53c-.73.2-1.06-.25-.61-.93.28-.4.35-1.09.56-2.45l1.24-8.61-1.29.28c-.58.1-.86-.1-.71-.73.15-.58.46-.83.96-.93l1.29-.3.12-.91c.56-3.84,2.78-5.96,5.46-5.96,1.72,0,2.83,1.24,2.6,2.7Z"/>
    <path class="cls-3" d="M242.63,211.58c-.68,1.41-2.83,3.23-5.86,3.23s-5.25-1.82-5.25-5.15c0-3.61,3.08-7.47,7.8-7.47,2.04,0,3.81.98,3.81,2.9,0,3.38-4.39,4.82-7.93,5.3.46,1.24,1.57,2.05,2.98,2.05,1.57,0,2.75-.71,3.74-1.49.58-.48,1.06-.1.71.63ZM234.83,208.28c0,.43.18.63.68.58,1.87-.3,4.75-1.21,4.75-3.33,0-1.01-.71-1.82-1.87-1.82-2.12,0-3.56,2.22-3.56,4.57Z"/>
  </g>
  <g>
    <path class="cls-1" d="M132.93,175.76c3.49-6.97,8.63-13.07,14.82-17.79,6.48-4.94,13.38-7.52,21.18-9.36,19.84-4.68,40.61-3.48,60.58-.28l.61.1c-3.17,5.75-2.59,13.35,1.42,18.56-.18,1.54.11,1.72,1.3,2.71"/>
    <path class="cls-1" d="M115.08,175.38c-3.02-4.66-5.44-9.02-9.96-12.35-3.95-2.9-8.3-5.22-12.83-7.06-9.08-3.68-18.8-5.49-28.46-6.83-16.2-2.25-32.62-2.85-48.94-1.76,4.03,3.42,6.56,8.56,6.8,13.85.13,2.76-.48,5.17-.48,7.93"/>
    <path class="cls-1" d="M124.57,175.77c-2.17-12.53-15.27-20.56-25.67-25.84-18.15-9.22-37.94-12.76-58.13-13.61-7.61-.32-15.24-.33-22.86-.22.33.94.66,1.89.99,2.83.89,2.54.57,5.13.52,7.83-.08,0-.15-.01-.23-.02"/>
    <path class="cls-1" d="M224.4,146.1l2.47-9.14c-19.28-4.69-39.9-5.55-58.76.61s-35.73,19.97-42.8,38.52"/>
    <path class="cls-2" d="M9.13,170.26c16.6-.83,33.21-1.56,49.84-1.3s32.22,1.95,48.3,3.55c1.01.1,2.5.09,3.4.64.98.6,1.21,1.62,1.93,2.55,2.51,3.19,6.69,4.22,10.56,4.39,2.93.13,8.69.54,10.46-2.32,1.33-2.15,2.04-3.76,4.58-4.86,2.68-1.16,5.88-1.4,8.75-1.67,30.96-2.86,62.19-2.86,93.16-.07"/>
  </g>
</svg>