<?xml version="1.0" encoding="UTF-8"?>
<svg xmlns="http://www.w3.org/2000/svg" version="1.1" viewBox="0 0 138.8 83.3">
  <defs>
    <style>
      .cls-1 {
        stroke-width: 1.5px;
      }

      .cls-1, .cls-2, .cls-3, .cls-4 {
        stroke-linecap: round;
      }

      .cls-1, .cls-2, .cls-3, .cls-4, .cls-5, .cls-6, .cls-7 {
        fill: none;
        stroke: #bdd8eb;
        stroke-linejoin: round;
      }

      .cls-2 {
        stroke-width: 1.5px;
      }

      .cls-3, .cls-7 {
        stroke-width: 1.5px;
      }

      .cls-4 {
        stroke-width: 1.6px;
      }

      .cls-5 {
        stroke-linecap: square;
        stroke-width: 1.5px;
      }

      .cls-6 {
        stroke-width: 1.5px;
      }

      .cls-8 {
        fill: #bdd8eb;
      }
    </style>
  </defs>
  <!-- Generator: Adobe Illustrator 28.7.7, SVG Export Plug-In . SVG Version: 1.2.0 Build 194)  -->
  <g>
    <g id="Layer_2">
      <path class="cls-3" d="M6.5,63c.6-2,1-3.9,1.7-5.8,2.1-5.8,4.5-11.5,7.5-16.9,1.5-2.8,4.4-4.2,6.6-6.6s3.9-5,5.7-7.6c1.4-2,2.6-4.2,3.7-6.4s2.9-4.4,4.4-6.6c.1-.2.2-.3.4-.4.3-.1.7.1.9.4,1.1,1,4.4,5.1,5.9,3.5,2.8-1.9,5.2-4.7,7-7.4s2.3-2.9,4.1-2.9c.9,0,1.7.4,2.5.9,3.6,1.9,7.2,3.8,10.7,5.6,3.2,1.7,5.5,3.2,9.2,3.4s12.2-1.4,15.9,3.5c7.7,6.2,15.5,12.4,23.2,18.6,1.4,1.1,2.5,2.8,3.6,4.2s2.9,3.5,4.3,5.3c1.8,2.5,3.5,5,5.1,7.6s2.5,5.2,4,7.8"/>
      <path class="cls-3" d="M40.6,16.1c1.4.9,2.7,2.3,4,3.4,2.3,1.9,4.6,4.5,6.3,6.9.7,1.1,1.7,1.5,2.8,2.3s2.3,2,3.2,3.2"/>
      <path class="cls-3" d="M47.1,21.4c7.2-.4,40.6-.6,26.2,10.8"/>
      <path class="cls-1" d="M49.8,24c2.8-.2,6.7-.5,9.3.8,4.1,2.1.3,4.9-2.1,7.1"/>
      <path class="cls-5" d="M60.1,32.4v6.9"/>
      <path class="cls-2" d="M73.5,32.6v4.3c0,2.5,0,5,0,7.5,0,1.8.1,3.8.4,5.7.3,2.1,1.6,4.8,3.8,5.5"/>
      <path class="cls-3" d="M54.4,55.3c1.9-1.2,2.6-2.9,2.6-4.8,0-1.8,0-3.5,0-5.3v-13"/>
      <path class="cls-3" d="M9.6,55.7h119.6"/>
      <path class="cls-3" d="M25,41.9c1.7-.5,2.1-2,2-3.5-.2.8.1,2.2.7,2.8s1.5.9,2.3.7"/>
      <path class="cls-3" d="M25,45.1c.6.1,1.2-.2,1.6-.6s.6-1.1.7-1.7c.4.6.7,1.2,1.2,1.7s1.3.8,1.9.6"/>
      <path class="cls-3" d="M24.7,48.4c.9.3,2-.2,2.5-1,0-.1.1-.2.2-.3.2-.1.5,0,.6.3,1.1,1.1,2.9,1.4,4.2.6"/>
      <path class="cls-3" d="M92.7,50.8c.9.3,2-.2,2.5-1,0-.1.1-.2.2-.3.2-.1.5,0,.6.3,1.1,1.1,2.9,1.4,4.2.6"/>
      <path class="cls-3" d="M27.1,39.2c.2,5.2.5,10.5.7,15.7"/>
      <path class="cls-3" d="M82.1,40.6c1.7-.5,2.1-2,2-3.5-.2.8.1,2.2.7,2.8s1.5.9,2.3.7"/>
      <path class="cls-3" d="M82.1,43.8c.6.1,1.2-.2,1.6-.6s.6-1.1.7-1.7c.4.6.7,1.2,1.2,1.7s1.3.8,1.9.6"/>
      <path class="cls-3" d="M81.7,47.1c.9.3,2-.2,2.5-1,0-.1.1-.2.2-.3.2-.1.5,0,.6.3,1.1,1.1,2.9,1.4,4.2.6"/>
      <path class="cls-3" d="M84.2,37.4c.2,5.9.5,11.9.7,17.8"/>
      <path class="cls-3" d="M106.8,44.8c2.1-.7,2.7-2.7,2.6-4.8-.2,1.1.1,3,.9,3.8s1.8,1.2,2.9,1"/>
      <path class="cls-3" d="M106.8,49.2c.7.2,1.5-.2,2-.9s.7-1.4.9-2.2c.4.8.9,1.7,1.5,2.3s1.6,1.1,2.4.8"/>
      <path class="cls-3" d="M109.4,41.3c.3,7.1.6,14.2.9,21.3"/>
      <path class="cls-3" d="M93,44c.8-.3,1.4-.8,1.9-1.4s.7-1.5.7-2.3c.8,1.8,2.4,3.1,4.4,3.2"/>
      <path class="cls-3" d="M95.6,40.4c0,5,.1,10.1.5,15.1"/>
      <path class="cls-3" d="M92.9,47.1c1.2-.1,2.3-1,2.7-2.1.5.7,1,1.5,1.7,2s1.6.9,2.5.7"/>
      <path class="cls-3" d="M36.8,50.6c.9.3,2-.2,2.5-1,0-.1.1-.2.2-.3.2-.1.5,0,.6.3,1.1,1.1,2.9,1.4,4.2.6"/>
      <path class="cls-3" d="M37.1,43.8c.8-.3,1.4-.8,1.9-1.4s.7-1.5.7-2.3c.8,1.8,2.4,3.1,4.4,3.2"/>
      <path class="cls-3" d="M39.7,40.2c0,5,.1,10.1.5,15.1"/>
      <path class="cls-3" d="M36.9,46.9c1.2-.1,2.3-1,2.7-2.1.5.7,1,1.5,1.7,2s1.6.9,2.5.7"/>
      <path class="cls-4" d="M67.6,12.6c2.7,2.2,5.6,4.3,8.3,6.5,2.5,2.1,5.3,4.2,8.6,4.6,1.1.1,2.2-.2,3.2.2.7.3,1.1.9,1.5,1.5,1.7,2.3,3.3,4.6,5,6.9"/>
      <line class="cls-3" x1="3.7" y1="63.1" x2="135.6" y2="63.1"/>
      <line class="cls-5" x1="66.9" y1="39.8" x2="66.9" y2="50.7"/>
      <line class="cls-5" x1="69.7" y1="35" x2="69.7" y2="43.4"/>
      <g>
        <path class="cls-8" d="M7.1,75.7c-.5,0-1-.2-1.4-.5,0,.1,0,.3,0,.4h-2.1c.1-1.9.1-4,.1-6.1v-.6c0-1.9,0-3.7-.2-5.1h2.1c0,1.2-.1,2.5-.1,3.8.3-.3.9-.4,1.4-.4,2.1,0,3.5,1.8,3.5,4.3,0,2.8-1.8,4.3-3.5,4.3ZM7,68.7c-.7,0-1.2.5-1.4,1.2,0,1.3,0,2.5,0,3.6.2.4.6.8,1.3.8.9,0,1.7-1,1.7-2.6,0-1.7-.6-2.9-1.7-2.9Z"/>
        <path class="cls-8" d="M18.4,75.8c-.3,0-.5.1-.8.1-.6,0-1.1-.3-1.4-.8-.5.4-1.2.9-2.1.9-1.8,0-2.5-1.3-2.5-2.3s.5-2.2,2.3-2.2,1.6.3,2,.6v-1.7c0-.9-.2-1.8-1.3-1.8s-1.5,1.5-1.5,2.4h-1.8c0-2.2,1.1-4.1,3.4-4.1s3.2,1.5,3.1,3.8c0,.5,0,1.2,0,1.9s0,.9,0,1.2c0,.6.3.6.6.6v1.3ZM15.9,73.7c-.4-.2-1-.5-1.4-.5-.7,0-.8.3-.8.7s.4.6.9.6.9-.3,1.4-.6v-.2Z"/>
        <path class="cls-8" d="M25.9,72.6c0,1.6-1.2,3.3-3.1,3.3s-3.6-1.6-3.6-4.4c0-2.7,1.5-4.4,3.7-4.4s2.9,1.6,3,3.3h-1.8c0-.8-.3-1.6-1.3-1.6s-1.7,1.3-1.7,3.1.8,2.5,1.7,2.5,1.2-1.8,1.2-1.8l1.9.2Z"/>
        <path class="cls-8" d="M32,75.9c-.6-.9-1.9-2.5-2.9-3.5-.2.2-.3.4-.4.6,0,.9,0,1.8.1,2.6h-2.1c.1-1.4.1-3.2.1-5.2v-.8c0-1.9,0-3.9-.1-5.8h2.1c-.1,1.5-.2,3.6-.2,5.7v.6c.8-.9,1.6-1.9,2.2-2.8h2.6c-.8.8-2,2.2-3.1,3.5,1.3,1.7,3.2,4,4.3,5h-2.6Z"/>
        <path class="cls-8" d="M40.7,72.6c0,1.6-1.2,3.3-3.1,3.3s-3.6-1.6-3.6-4.4c0-2.7,1.5-4.4,3.7-4.4s2.9,1.6,3,3.3h-1.8c0-.8-.3-1.6-1.3-1.6s-1.7,1.3-1.7,3.1.8,2.5,1.7,2.5,1.2-1.8,1.2-1.8l1.9.2Z"/>
        <path class="cls-8" d="M44.9,75.9c-1.9,0-3.4-1.4-3.4-4.4s1.5-4.4,3.4-4.4c2,0,3.5,1.3,3.5,4.4s-1.5,4.4-3.5,4.4ZM44.9,68.9c-.9,0-1.6.6-1.6,2.7s.8,2.6,1.6,2.7c.8,0,1.6-.7,1.6-2.7s-.6-2.7-1.6-2.7Z"/>
        <path class="cls-8" d="M54.6,75.6c0-.4,0-.8,0-1.3-.2.5-.7,1.3-2.1,1.5-.2,0-.3,0-.5,0-.7,0-1.3-.2-1.8-.5-.5-.4-.8-.9-.8-1.7,0-.9,0-1.9,0-2.9,0-.5,0-.9,0-1.3,0-.8,0-1.4,0-2.1h2c0,.8-.1,1.8-.1,2.9v.5c0,.9,0,1.8.1,2.5,0,.9.8,1.2,1.4,1.1.8-.1,1.4-.8,1.7-1.5v-1.4c0-1.4,0-3.3-.1-4.6h2.1c0,1.3-.1,3.3-.1,4.7,0,1.5,0,2.9.1,4h-2.1Z"/>
        <path class="cls-8" d="M63,76c0-.8.1-2,.1-3.2v-.7c0-.9,0-1.8-.1-2.5,0-.9-.8-1.2-1.4-1.1-.8.1-1.4.7-1.7,1.5v1.4c0,1.4,0,2.8.1,4.1h-2.1c0-1.3.1-2.8.1-4.3,0-1.5,0-3.3-.1-4.5h2.1c0,.4,0,1.3,0,1.8.2-.5.7-1.3,2.1-1.5.2,0,.3,0,.5,0,.6,0,1.3.2,1.8.5.5.4.8.9.8,1.7,0,.9,0,1.9,0,2.9,0,.4,0,.8,0,1.2,0,1,0,1.9.1,2.6h-2Z"/>
        <path class="cls-8" d="M72.4,73.4s0,2.5-2.9,2.5-2.7-1.8-2.7-3.9c0-.8,0-1.7,0-2.7-.4,0-.7,0-1,0v-1.9c.3,0,.6,0,1,0,0-.7,0-1.5,0-2.2h2c0,.6,0,1.4,0,2.2,1.2,0,1.8,0,2.7-.1v1.9c-1,0-1.6-.1-2.7-.1,0,1,0,1.6,0,2.8,0,1.9.5,2.3,1,2.4.5,0,.8-.4.9-1h1.7Z"/>
        <path class="cls-8" d="M77.2,71s0-.9,0-1.5c0-.6-.5-.9-.9-.7-.7.3-1.1.9-1.4,1.6v1c0,1.6,0,3.1.2,4.2h-2c0-.9.1-2.5.1-4.2v-.5c0-1.4,0-2.7-.1-3.6h2c0,.3,0,.6,0,1,.3-.6,1-1.1,1.8-1.1,1.3,0,1.9,1.1,1.9,2.1,0,1,.1,1.7.1,1.7h-1.8Z"/>
        <path class="cls-8" d="M83,80c-2.2,0-3-1.6-3-3.5v-.6h1.8v.5c0,1.2.4,1.7,1.1,1.7s1.1-.7,1.1-1.7c0-.4,0-.9,0-1.5-.3.2-.7.4-1.2.4-.2,0-.3,0-.5,0-.6,0-1.3-.2-1.8-.5-.5-.4-.8-.9-.8-1.7,0-1.1.1-2.2.1-3.2,0-.9,0-1.8-.1-2.9h2c-.1,1.1-.1,2-.1,2.9,0,.9,0,1.8.1,2.8,0,.9.8,1.2,1.4,1.1.3,0,.5-.2.8-.3,0-.9,0-1.9,0-2.8s0-2.4-.2-3.4h2.1c0,.9-.1,2.2-.1,3.6v.6c0,1.8,0,3.6.1,4.8.1,2.1-1.4,3.6-3.1,3.6Z"/>
        <path class="cls-8" d="M96.2,75.9c-1,0-1.6-.3-2-.7,0,1.7,0,3.2.1,4.4h-2.1c0-1.9.1-4.1.1-6.2s0-4.4-.1-6h2.1c0,.4,0,.8,0,1.2.4-.6,1-1.4,2.2-1.4,1.7,0,3.1,1.3,3.1,4.1s-1.7,4.6-3.4,4.6ZM95.9,68.6c-.7,0-1.5.8-1.7,2h0c0,1,0,1.9,0,2.8,0,.3.7,1,1.5,1s1.9-1.1,1.9-3c0-2-.9-2.8-1.8-2.8Z"/>
        <path class="cls-8" d="M100.8,75.6c.1-1.4.1-3.2.1-5.2v-.8c0-1.9,0-3.9-.1-5.8h2.1c-.1,1.5-.2,3.6-.2,5.7,0,2,0,4.2.2,6.1h-2.1Z"/>
        <path class="cls-8" d="M109.5,75.6c0-.4,0-.8,0-1.3-.2.5-.7,1.3-2.1,1.5-.2,0-.3,0-.5,0-.7,0-1.3-.2-1.8-.5-.5-.4-.8-.9-.8-1.7,0-.9,0-1.9,0-2.9,0-.5,0-.9,0-1.3,0-.8,0-1.4,0-2.1h2c0,.8-.1,1.8-.1,2.9v.5c0,.9,0,1.8.1,2.5,0,.9.8,1.2,1.4,1.1.8-.1,1.4-.8,1.7-1.5v-1.4c0-1.4,0-3.3-.1-4.6h2.1c0,1.3-.1,3.3-.1,4.7,0,1.5,0,2.9.1,4h-2.1Z"/>
        <path class="cls-8" d="M118,76c0-.8.1-2,.1-3.2v-.7c0-.9,0-1.8-.1-2.5,0-.9-.8-1.2-1.4-1.1-.8.1-1.4.7-1.7,1.5v1.4c0,1.4,0,2.8.1,4.1h-2.1c0-1.3.1-2.8.1-4.3,0-1.5,0-3.3-.1-4.5h2.1c0,.4,0,1.3,0,1.8.2-.5.7-1.3,2.1-1.5.2,0,.3,0,.5,0,.6,0,1.3.2,1.8.5.5.4.8.9.8,1.7,0,.9,0,1.9,0,2.9,0,.4,0,.8,0,1.2,0,1,0,1.9.1,2.6h-2Z"/>
        <path class="cls-8" d="M124.5,80c-2.2,0-2.9-1.6-2.9-3.5v-.6h1.8v.5c0,1.2.4,1.7,1.1,1.7s1.1-.7,1.1-1.7c0-.5,0-1.1,0-1.8-.5.5-1.1.7-1.7.7s-.5,0-.8-.1c-1.2-.3-2.3-1.4-2.3-3.7s.8-4.1,2.5-4.2c1.1-.1,1.8.4,2.2.9,0-.3,0-.6,0-.8h2.1c0,1-.1,2.4-.1,3.9s0,3.9.1,5.1c.1,2.1-1.4,3.6-3.1,3.6ZM125.7,72.1c0-.7,0-1.5,0-2.2-.3-.5-.7-1-1.4-1s-1.5,1.1-1.5,2.4c0,1.4.4,2.5,1.5,2.5.6,0,1.1-.5,1.4-1v-.8Z"/>
        <path class="cls-8" d="M132.4,71.4c-.7,0-1.4,0-2,0v.3c0,1.6.8,2.5,1.7,2.5s1.2-1.8,1.2-1.8l1.9.2c0,1.6-1.2,3.3-3.1,3.3s-3.6-1.6-3.6-4.4c0-2.7,1.5-4.4,3.7-4.4s3.1,2.6,3.1,4.4c-.8,0-1.9,0-3,0ZM132.1,68.7c-.8,0-1.3.6-1.5,1.5.6,0,1.2,0,1.8,0s.7,0,1,0c-.1-.8-.5-1.5-1.3-1.5Z"/>
      </g>
      <line class="cls-7" x1="50.1" y1="59.1" x2="31.1" y2="59.1"/>
      <line class="cls-7" x1="77.7" y1="60.7" x2="58.7" y2="60.7"/>
      <line class="cls-6" x1="75.4" y1="58.5" x2="103.7" y2="58.5"/>
      <line class="cls-5" x1="62.9" y1="55.3" x2="62.9" y2="44.6"/>
      <line class="cls-7" x1="100" y1="32.4" x2="57" y2="32.4"/>
    </g>
  </g>
</svg>