<?xml version="1.0" encoding="UTF-8"?>
<svg id="Layer_2" xmlns="http://www.w3.org/2000/svg" viewBox="0 0 138.81 83.32">
  <defs>
    <style>
      .cls-1 {
        fill: #4e6e41;
      }

      .cls-2 {
        stroke-width: 1.55px;
      }

      .cls-2, .cls-3, .cls-4, .cls-5, .cls-6, .cls-7, .cls-8, .cls-9 {
        fill: none;
        stroke: #4e6e41;
        stroke-linejoin: round;
      }

      .cls-3, .cls-5 {
        stroke-width: 1.55px;
      }

      .cls-4 {
        stroke-width: 1.55px;
      }

      .cls-5, .cls-6, .cls-7, .cls-8 {
        stroke-linecap: round;
      }

      .cls-6 {
        stroke-width: 1.54px;
      }

      .cls-7 {
        stroke-width: 1.48px;
      }

      .cls-8 {
        stroke-width: 1.56px;
      }

      .cls-9 {
        stroke-linecap: square;
        stroke-width: 1.55px;
      }
    </style>
  </defs>
  <path class="cls-5" d="M6.5,62.97c.59-1.95,1.04-3.9,1.72-5.83,2.07-5.81,4.5-11.5,7.47-16.91,1.52-2.77,4.42-4.24,6.55-6.6s3.92-4.99,5.69-7.61c1.37-2.02,2.62-4.21,3.71-6.38,1.17-2.34,2.86-4.45,4.36-6.6.12-.17.25-.35.44-.42.33-.12.66.13.93.36,1.14.99,4.36,5.08,5.92,3.52,2.78-1.85,5.2-4.67,7.04-7.42.97-1.45,2.33-2.93,4.07-2.9.91.01,1.75.44,2.55.86,3.58,1.88,7.17,3.76,10.75,5.64,3.21,1.68,5.52,3.22,9.21,3.43,5.2.3,12.22-1.36,15.86,3.49,7.73,6.18,15.46,12.37,23.19,18.55,1.38,1.11,2.47,2.84,3.63,4.19,1.49,1.72,2.91,3.5,4.27,5.33,1.83,2.46,3.54,5.01,5.12,7.64,1.53,2.55,2.47,5.25,4,7.79"/>
  <path class="cls-5" d="M40.6,16.06c1.38.91,2.68,2.32,3.99,3.4,2.34,1.93,4.59,4.46,6.33,6.94.74,1.06,1.72,1.52,2.76,2.29,1.21.91,2.31,1.97,3.25,3.15"/>
  <path class="cls-5" d="M47.07,21.42c7.19-.41,40.63-.62,26.16,10.85"/>
  <path class="cls-7" d="M49.8,23.95c2.83-.22,6.66-.49,9.26.83,4.05,2.06.27,4.92-2.14,7.06"/>
  <path class="cls-9" d="M60.1,32.4v6.87"/>
  <path class="cls-6" d="M73.53,32.62v4.25c0,2.51,0,5.02,0,7.53,0,1.85.11,3.84.41,5.67.34,2.11,1.59,4.79,3.79,5.48"/>
  <path class="cls-5" d="M54.36,55.3c1.92-1.22,2.59-2.9,2.59-4.78,0-1.77,0-3.54,0-5.32v-13"/>
  <path class="cls-5" d="M9.61,55.67h119.61"/>
  <path class="cls-5" d="M25.03,41.87c1.69-.5,2.13-1.96,2.05-3.51-.18.82.12,2.18.7,2.78s1.48.87,2.3.71"/>
  <path class="cls-5" d="M25.03,45.1c.59.15,1.22-.17,1.61-.63s.58-1.06.73-1.65c.35.61.71,1.24,1.24,1.71s1.25.78,1.94.62"/>
  <path class="cls-5" d="M24.65,48.42c.93.28,2.02-.17,2.49-1.01.06-.11.12-.23.22-.28.22-.11.46.1.63.27,1.08,1.08,2.87,1.35,4.22.64"/>
  <path class="cls-5" d="M92.74,50.81c.93.28,2.02-.17,2.49-1.01.06-.11.12-.23.22-.28.22-.11.46.1.63.27,1.08,1.08,2.87,1.35,4.22.64"/>
  <path class="cls-5" d="M27.11,39.25c.24,5.23.48,10.46.72,15.69"/>
  <path class="cls-5" d="M82.1,40.57c1.69-.5,2.13-1.96,2.05-3.51-.18.82.12,2.18.7,2.78s1.48.87,2.3.71"/>
  <path class="cls-5" d="M82.1,43.8c.59.15,1.22-.17,1.61-.63s.58-1.06.73-1.65c.35.61.71,1.24,1.24,1.71s1.25.78,1.94.62"/>
  <path class="cls-5" d="M81.73,47.12c.93.28,2.02-.17,2.49-1.01.06-.11.12-.23.22-.28.22-.11.46.1.63.27,1.08,1.08,2.87,1.35,4.22.64"/>
  <path class="cls-5" d="M84.18,37.45c.24,5.94.48,11.88.72,17.83"/>
  <path class="cls-5" d="M106.84,44.82c2.11-.67,2.67-2.67,2.56-4.76-.22,1.11.15,2.96.88,3.77s1.85,1.18,2.87.96"/>
  <path class="cls-5" d="M106.84,49.21c.74.2,1.53-.22,2.01-.86s.73-1.44.92-2.24c.44.83.89,1.68,1.55,2.32s1.57,1.05,2.43.85"/>
  <path class="cls-5" d="M109.44,41.27l.91,21.28"/>
  <path class="cls-5" d="M93.02,44.02c.76-.26,1.44-.77,1.9-1.43s.71-1.47.7-2.27c.76,1.81,2.45,3.12,4.41,3.18"/>
  <path class="cls-5" d="M95.62,40.44c-.05,5.04.13,10.08.53,15.1"/>
  <path class="cls-5" d="M92.86,47.06c1.2-.12,2.3-.97,2.73-2.11.51.74,1.03,1.49,1.74,2.04s1.64.89,2.51.67"/>
  <path class="cls-5" d="M36.81,50.61c.93.28,2.02-.17,2.49-1.01.06-.11.12-.23.22-.28.22-.11.46.1.63.27,1.08,1.08,2.87,1.35,4.22.64"/>
  <path class="cls-5" d="M37.09,43.82c.76-.26,1.44-.77,1.9-1.43s.71-1.47.7-2.27c.76,1.81,2.45,3.12,4.41,3.18"/>
  <path class="cls-5" d="M39.69,40.24c-.05,5.04.13,10.08.53,15.1"/>
  <path class="cls-5" d="M36.93,46.86c1.2-.12,2.3-.97,2.73-2.11.51.74,1.03,1.49,1.74,2.04s1.64.89,2.51.67"/>
  <path class="cls-8" d="M67.59,12.56c2.7,2.24,5.57,4.25,8.29,6.47,2.54,2.07,5.31,4.18,8.63,4.61,1.06.14,2.2-.22,3.17.23.66.3,1.11.92,1.53,1.51,1.66,2.31,3.32,4.63,4.99,6.94"/>
  <line class="cls-4" x1="3.72" y1="63.09" x2="135.55" y2="63.09"/>
  <line class="cls-9" x1="66.88" y1="39.85" x2="66.88" y2="50.69"/>
  <line class="cls-9" x1="69.73" y1="34.96" x2="69.73" y2="43.43"/>
  <g>
    <path class="cls-1" d="M7.1,75.73c-.52-.01-.99-.19-1.35-.5,0,.15.03.3.04.43h-2.06c.1-1.89.15-4.02.15-6.07v-.65c0-1.91-.06-3.7-.16-5.08h2.06c-.06,1.21-.1,2.5-.13,3.8.31-.26.88-.44,1.44-.44,2.14-.03,3.51,1.8,3.48,4.26-.03,2.8-1.83,4.27-3.46,4.26ZM7,68.66c-.74,0-1.18.53-1.38,1.16,0,1.27.01,2.49.04,3.58.21.37.6.8,1.34.78.91-.03,1.71-1.03,1.74-2.59.02-1.68-.56-2.93-1.74-2.93Z"/>
    <path class="cls-1" d="M18.45,75.84c-.26.07-.53.12-.75.12-.63,0-1.1-.3-1.44-.78-.46.44-1.16.9-2.11.88-1.78-.04-2.48-1.34-2.48-2.25s.49-2.15,2.27-2.15c.94,0,1.59.29,2,.59v-1.66c0-.93-.22-1.78-1.33-1.78s-1.47,1.5-1.47,2.42h-1.78c-.02-2.17,1.12-4.1,3.37-4.1,2.37,0,3.23,1.49,3.14,3.76-.01.5-.04,1.21-.04,1.87,0,.46.02.9.04,1.24.06.57.31.59.57.59v1.27ZM15.94,73.67c-.41-.21-.99-.46-1.43-.46-.69,0-.84.31-.84.69s.4.59.9.59c.35,0,.94-.32,1.37-.59v-.23Z"/>
    <path class="cls-1" d="M25.87,72.57c-.04,1.58-1.24,3.32-3.12,3.32s-3.6-1.61-3.6-4.42c.03-2.67,1.49-4.45,3.7-4.45s2.95,1.65,2.99,3.28l-1.81.1c-.01-.88-.32-1.75-1.31-1.75-1.16,0-1.72,1.34-1.72,3.06,0,1.56.79,2.46,1.72,2.46,1.19,0,1.24-1.78,1.24-1.78l1.91.18Z"/>
    <path class="cls-1" d="M31.97,75.93c-.56-.9-1.87-2.46-2.86-3.48-.16.22-.31.43-.44.62.03.88.07,1.75.12,2.56h-2.06c.1-1.36.15-3.2.15-5.19v-.84c-.01-1.91-.06-3.93-.15-5.76h2.06c-.13,1.55-.18,3.58-.18,5.73v.62c.81-.87,1.59-1.9,2.17-2.79h2.59c-.82.81-2.03,2.18-3.08,3.49,1.28,1.71,3.2,3.96,4.29,5.02h-2.61Z"/>
    <path class="cls-1" d="M40.69,72.57c-.04,1.58-1.24,3.32-3.12,3.32s-3.6-1.61-3.6-4.42c.03-2.67,1.49-4.45,3.7-4.45s2.95,1.65,2.99,3.28l-1.81.1c-.01-.88-.32-1.75-1.31-1.75-1.16,0-1.72,1.34-1.72,3.06,0,1.56.79,2.46,1.72,2.46,1.19,0,1.24-1.78,1.24-1.78l1.91.18Z"/>
    <path class="cls-1" d="M44.89,75.93c-1.9,0-3.45-1.43-3.45-4.42,0-2.8,1.55-4.39,3.45-4.4,2.03,0,3.46,1.3,3.46,4.4,0,3.27-1.55,4.42-3.46,4.42ZM44.89,68.89c-.91,0-1.58.65-1.58,2.65s.78,2.62,1.58,2.65c.81.01,1.56-.66,1.56-2.65s-.65-2.65-1.56-2.65Z"/>
    <path class="cls-1" d="M54.56,75.64c.04-.4.07-.82.09-1.28-.21.49-.69,1.31-2.12,1.5-.16.03-.34.03-.5.03-.66,0-1.3-.18-1.75-.5-.49-.35-.78-.9-.75-1.68.04-.88.07-1.89.09-2.89.02-.49.02-.93.02-1.34,0-.77-.02-1.43-.09-2.08h2.03c-.07.84-.12,1.77-.12,2.93v.53c.01.9.04,1.77.1,2.47.06.87.78,1.18,1.41,1.08.78-.13,1.41-.75,1.74-1.53v-1.37c0-1.38-.06-3.28-.15-4.57h2.06c-.09,1.31-.13,3.26-.15,4.71,0,1.46.04,2.86.15,3.98h-2.06Z"/>
    <path class="cls-1" d="M63.02,76.02c.07-.8.1-1.96.1-3.15v-.69c-.02-.88-.04-1.77-.1-2.47-.06-.85-.78-1.18-1.41-1.06-.78.13-1.41.74-1.74,1.52v1.37c0,1.38.06,2.83.15,4.11h-2.06c.09-1.3.13-2.8.15-4.26,0-1.46-.04-3.33-.15-4.46h2.06c-.04.4-.07,1.31-.09,1.78.21-.49.69-1.31,2.12-1.52.16-.03.34-.03.5-.03.65,0,1.28.18,1.75.5.49.35.78.9.75,1.68-.04.88-.07,1.9-.09,2.89-.01.41-.01.82-.01,1.22,0,.97.03,1.87.1,2.58h-2.03Z"/>
    <path class="cls-1" d="M72.36,73.37s.03,2.47-2.95,2.47c-1.89,0-2.74-1.83-2.65-3.92.03-.8.04-1.74.06-2.74-.35.02-.68.03-.99.06v-1.86c.31.04.63.06.97.09-.01-.74-.04-1.47-.07-2.18h2.05c-.04.62-.07,1.4-.07,2.24,1.22,0,1.84-.04,2.71-.15v1.86c-1.02-.06-1.59-.1-2.7-.1,0,.96.03,1.61.06,2.81.03,1.94.53,2.33.96,2.37.53.03.82-.35.9-.96h1.72Z"/>
    <path class="cls-1" d="M77.16,71.04s.07-.9.04-1.5c-.01-.62-.46-.85-.85-.72-.74.25-1.08.89-1.35,1.59v1.03c.01,1.58.07,3.14.16,4.2h-2.05c.09-.91.15-2.53.15-4.15v-.47c0-1.38-.06-2.74-.15-3.62h2.05c-.03.29-.06.62-.09.96.31-.57,1.05-1.12,1.83-1.13,1.34-.03,1.9,1.06,1.93,2.12.01,1.05.12,1.71.12,1.71h-1.78Z"/>
    <path class="cls-1" d="M82.97,79.96c-2.21,0-2.96-1.61-2.96-3.46v-.58h1.8v.53c0,1.19.4,1.68,1.13,1.68.99,0,1.08-.69,1.15-1.71.03-.43.01-.94.03-1.5-.3.19-.74.35-1.22.43-.16.03-.34.03-.5.03-.65,0-1.28-.18-1.75-.5-.49-.35-.78-.9-.75-1.68.06-1.15.13-2.2.15-3.21.01-.94-.03-1.83-.15-2.89h2.03c-.1,1.06-.13,1.99-.13,2.93.01.9.06,1.8.13,2.8.06.85.78,1.18,1.41,1.08.28-.06.53-.16.77-.31.01-.91.04-1.89.04-2.84,0-1.24-.03-2.43-.16-3.36h2.08c-.09.93-.12,2.24-.12,3.62v.63c0,1.81.06,3.64.12,4.76.12,2.11-1.43,3.55-3.09,3.55Z"/>
    <path class="cls-1" d="M96.15,75.89c-.99,0-1.64-.32-2-.66.02,1.65.06,3.17.15,4.36h-2.08c.09-1.93.15-4.13.15-6.23,0-2.24-.04-4.38-.15-5.97h2.08c-.03.4-.04.79-.06,1.21.37-.65,1.03-1.4,2.2-1.4,1.72,0,3.08,1.31,3.08,4.14,0,3.15-1.74,4.55-3.36,4.55ZM95.87,68.61c-.72,0-1.53.75-1.68,1.96v.03c-.03.94-.04,1.89-.04,2.81.09.28.68,1.03,1.55,1.03,1.05,0,1.89-1.12,1.93-3.01,0-1.99-.91-2.83-1.75-2.83Z"/>
    <path class="cls-1" d="M100.78,75.64c.1-1.36.15-3.2.15-5.19v-.84c-.01-1.91-.06-3.93-.15-5.76h2.06c-.13,1.55-.18,3.58-.18,5.73.01,2.05.07,4.18.18,6.05h-2.06Z"/>
    <path class="cls-1" d="M109.53,75.64c.04-.4.07-.82.09-1.28-.21.49-.69,1.31-2.12,1.5-.16.03-.34.03-.5.03-.66,0-1.3-.18-1.75-.5-.49-.35-.78-.9-.75-1.68.04-.88.07-1.89.09-2.89.02-.49.02-.93.02-1.34,0-.77-.02-1.43-.09-2.08h2.03c-.07.84-.12,1.77-.12,2.93v.53c.01.9.04,1.77.1,2.47.06.87.78,1.18,1.41,1.08.78-.13,1.41-.75,1.74-1.53v-1.37c0-1.38-.06-3.28-.15-4.57h2.06c-.09,1.31-.13,3.26-.15,4.71,0,1.46.04,2.86.15,3.98h-2.06Z"/>
    <path class="cls-1" d="M117.99,76.02c.07-.8.1-1.96.1-3.15v-.69c-.02-.88-.04-1.77-.1-2.47-.06-.85-.78-1.18-1.41-1.06-.78.13-1.41.74-1.74,1.52v1.37c0,1.38.06,2.83.15,4.11h-2.06c.09-1.3.13-2.8.15-4.26,0-1.46-.04-3.33-.15-4.46h2.06c-.04.4-.07,1.31-.09,1.78.21-.49.69-1.31,2.12-1.52.16-.03.34-.03.5-.03.65,0,1.28.18,1.75.5.49.35.78.9.75,1.68-.04.88-.07,1.9-.09,2.89-.01.41-.01.82-.01,1.22,0,.97.03,1.87.1,2.58h-2.03Z"/>
    <path class="cls-1" d="M124.49,79.96c-2.21,0-2.95-1.61-2.95-3.46v-.58h1.78v.53c0,1.19.4,1.68,1.13,1.68.99,0,1.08-.69,1.15-1.71.04-.52.07-1.12.09-1.77-.47.5-1.08.72-1.72.72-.26,0-.54-.04-.82-.12-1.19-.34-2.27-1.44-2.27-3.73s.84-4.05,2.52-4.23c1.06-.1,1.8.44,2.21.88-.03-.29-.06-.56-.09-.79h2.06c-.09.99-.12,2.43-.12,3.9,0,1.91.04,3.9.12,5.11.12,2.11-1.43,3.55-3.09,3.55ZM125.74,72.1c0-.72-.01-1.46-.03-2.15-.32-.47-.72-.96-1.38-.96-.78,0-1.53,1.06-1.5,2.45.03,1.4.44,2.52,1.53,2.49.59-.01,1.06-.52,1.38-1.03v-.79Z"/>
    <path class="cls-1" d="M132.37,71.35c-.69,0-1.38.01-1.96.04v.32c0,1.56.8,2.46,1.72,2.46,1.19,0,1.22-1.78,1.22-1.78l1.93.18c-.04,1.58-1.24,3.32-3.12,3.32s-3.61-1.61-3.59-4.42c.01-2.65,1.47-4.45,3.67-4.45,2.58,0,3.09,2.59,3.12,4.42-.8-.06-1.9-.09-2.99-.09ZM132.13,68.66c-.77,0-1.27.57-1.53,1.46.56.03,1.18.04,1.78.04.35,0,.71-.01,1.05-.01-.15-.8-.5-1.49-1.3-1.49Z"/>
  </g>
  <line class="cls-3" x1="50.09" y1="59.11" x2="31.11" y2="59.11"/>
  <line class="cls-3" x1="77.73" y1="60.72" x2="58.75" y2="60.72"/>
  <line class="cls-2" x1="75.43" y1="58.45" x2="103.67" y2="58.45"/>
  <line class="cls-9" x1="62.89" y1="55.3" x2="62.89" y2="44.56"/>
  <line class="cls-3" x1="100.04" y1="32.36" x2="56.95" y2="32.36"/>
</svg>